<?xml version="1.0" encoding="UTF-8"?>
<svg width="457px" height="78px" viewBox="0 0 457 78" version="1.1" xmlns="http://www.w3.org/2000/svg" xmlns:xlink="http://www.w3.org/1999/xlink">
    <!-- Generator: Sketch 53.2 (72643) - https://sketchapp.com -->
    <title>Group 2</title>
    <desc>Created with Sketch.</desc>
    <g id="Page-1" stroke="none" stroke-width="1" fill="none" fill-rule="evenodd">
        <g id="Group-2" fill="#2E2629" fill-rule="nonzero">
            <path d="M23.5,49.77 C10.5,49.77 3.55271368e-15,40.07 3.55271368e-15,26.34 C3.55271368e-15,12.61 10.54,2.97 23.5,2.97 C36.46,2.97 46.87,12.6 46.87,26.34 C46.87,40.08 36.45,49.77 23.5,49.77 M23.5,39.62 C30.79,39.62 35.5,34.35 35.5,26.34 C35.5,18.33 30.75,13.06 23.5,13.06 C16.25,13.06 11.39,18.2 11.39,26.34 C11.39,34.48 16.08,39.62 23.5,39.62" id="Shape"></path>
            <path d="M63.59,12.43 C67.9996815,12.3083887 72.1831367,14.3795174 74.76,17.96 L74.76,1.1 L85.89,1.1 L85.89,49.27 L74.76,49.27 L74.76,44.06 C72.76,47.38 68.9,49.79 63.57,49.79 C54.65,49.79 47.57,42.5 47.57,31.04 C47.57,19.58 54.66,12.43 63.57,12.43 M66.82,22.12 C62.65,22.12 58.88,25.24 58.88,31.04 C58.88,36.84 62.65,40.04 66.82,40.04 C70.99,40.04 74.76,36.85 74.76,31.04 C74.76,25.23 71.06,22.04 66.82,22.04" id="Shape"></path>
            <path d="M106.87,49.77 C96.2,49.77 88.52,42.61 88.52,31.09 C88.52,19.57 96.07,12.41 106.87,12.41 C117.48,12.41 124.97,19.41 124.97,30.51 C124.963391,31.5998236 124.893272,32.6883357 124.76,33.77 L99.58,33.77 C99.97,38.52 102.9,40.77 106.48,40.77 C108.955368,40.931061 111.267883,39.5291734 112.27,37.26 L124.12,37.26 C122.36,44.35 115.92,49.82 106.87,49.82 M99.65,27.62 L113.58,27.62 C113.58,23.62 110.45,21.37 106.74,21.37 C103.03,21.37 100.3,23.59 99.65,27.62" id="Shape"></path>
            <path d="M144.1,49.77 C133.43,49.77 125.36,42.61 125.36,31.09 C125.36,19.57 133.63,12.41 144.23,12.41 C154.83,12.41 163.11,19.57 163.11,31.09 C163.11,42.61 154.76,49.77 144.1,49.77 M144.1,40.13 C148.1,40.13 151.78,37.2 151.78,31.13 C151.78,25.06 148.14,22.13 144.23,22.13 C140.32,22.13 136.68,24.99 136.68,31.13 C136.68,37.27 140.06,40.13 144.1,40.13" id="Shape"></path>
            <path d="M190.83,29.54 C190.83,24.54 188.1,21.86 183.83,21.86 C179.56,21.86 176.83,24.59 176.83,29.54 L176.83,49.26 L165.76,49.26 L165.76,12.94 L176.89,12.94 L176.89,17.77 C179.502438,14.3616751 183.597862,12.4219332 187.89,12.56 C196.29,12.56 201.89,18.29 201.89,28.05 L201.89,49.27 L190.83,49.27 L190.83,29.54 Z" id="Path"></path>
            <path d="M219.76,49.77 C211.69,49.77 206.03,45.77 205.44,39.22 L210.13,39.22 C210.52,43.13 213.91,45.92 219.7,45.92 C224.78,45.92 227.64,43.19 227.64,39.8 C227.64,31.01 206.29,36.16 206.29,22.8 C206.29,17.53 211.29,13.17 218.79,13.17 C226.29,13.17 231.42,17.17 231.79,24.04 L227.23,24.04 C226.97,20.04 224.04,17.04 218.64,17.04 C213.89,17.04 210.89,19.58 210.89,22.7 C210.89,32.33 231.89,27.19 232.11,39.75 C232.11,45.49 227.11,49.75 219.74,49.75" id="Path"></path>
            <path d="M253.05,49.77 C243.05,49.77 235.41,42.77 235.41,31.48 C235.41,20.19 243.22,13.19 253.18,13.19 C263.14,13.19 270.95,20.19 270.95,31.48 C270.95,42.77 263.07,49.77 253.05,49.77 M253.05,45.77 C259.76,45.77 266.26,41.21 266.26,31.45 C266.26,21.69 259.88,17.13 253.11,17.13 C246.34,17.13 240.03,21.69 240.03,31.45 C240.03,41.21 246.28,45.77 253.03,45.77" id="Shape"></path>
            <path d="M277.19,17.57 L272.24,17.57 L272.24,13.77 L277.19,13.77 L277.19,11.26 C277.19,3.64 280.77,0 289.75,0 L289.75,3.91 C283.7,3.91 281.75,6.12 281.75,11.26 L281.75,13.77 L290.02,13.77 L290.02,17.61 L281.76,17.61 L281.76,49.31 L277.2,49.31 L277.2,17.57 L277.19,17.57 Z" id="Path"></path>
            <path d="M295.22,17.57 L291.22,17.57 L291.22,13.77 L295.22,13.77 L295.22,4.77 L299.84,4.77 L299.84,13.77 L308.6,13.77 L309.6,17.61 L299.84,17.61 L299.84,39.68 C299.84,44.04 301.34,45.41 305.44,45.41 L309.61,45.41 L309.61,49.32 L304.76,49.32 C298.58,49.32 295.26,46.78 295.26,39.69 L295.26,17.57 L295.22,17.57 Z" id="Path"></path>
            <polygon id="Path" points="309.6 13.73 314.23 13.73 323.08 44.64 333.04 13.73 337.59 13.73 347.42 44.71 356.21 13.73 360.7 13.73 349.57 49.27 345.01 49.27 335.18 19.45 325.36 49.27 320.73 49.27"></polygon>
            <path d="M378.53,13.21 C385.69,13.21 390.53,17.05 392.59,21.54 L392.59,13.77 L397.15,13.77 L397.15,49.27 L392.59,49.27 L392.59,41.39 C390.51,45.95 385.59,49.79 378.47,49.79 C368.77,49.79 361.55,42.56 361.55,31.43 C361.55,20.3 368.77,13.21 378.55,13.21 M379.39,17.21 C371.91,17.21 366.18,22.42 366.18,31.46 C366.18,40.5 371.91,45.85 379.39,45.85 C386.68,45.85 392.6,40.38 392.6,31.53 C392.6,22.68 386.68,17.21 379.39,17.21" id="Shape"></path>
            <path d="M408.86,49.27 L404.3,49.27 L404.3,13.77 L408.86,13.77 L408.86,20.08 C410.81,15.72 414.86,13.08 421.03,13.08 L421.03,17.83 L419.76,17.83 C413.84,17.83 408.83,20.5 408.83,29.42 L408.86,49.27 Z" id="Path"></path>
            <path d="M439.97,49.77 C429.88,49.77 422.53,42.77 422.53,31.48 C422.53,20.19 429.75,13.19 439.97,13.19 C450.38,13.19 456.76,20.61 456.76,29.66 C456.785158,30.8548374 456.741753,32.0501342 456.63,33.24 L427.15,33.24 C427.54,41.57 433.33,45.93 439.97,45.93 C445.97,45.93 450.12,42.74 451.43,37.99 L456.25,37.99 C454.61,44.69 448.88,49.77 439.97,49.77 M427.15,29.52 L452.15,29.52 C452.35,21.25 446.36,17.09 439.78,17.09 C433.2,17.09 427.68,21.26 427.16,29.52" id="Shape"></path>
            <g id="Group" opacity="0.7" transform="translate(182.760000, 62.770000)">
                <path d="M11.36,14.12 L8,10.4 C8.00650581,10.4898824 8.00650581,10.5801176 8,10.67 C7.99751028,10.8779884 7.97743878,11.0853938 7.94,11.29 C7.86163164,12.1174982 7.46337081,12.8817284 6.83,13.42 C6.17292957,13.9787971 5.33220454,14.2744758 4.47,14.25 C3.74585537,14.2590742 3.03090308,14.0872107 2.39,13.75 C1.78119021,13.429137 1.27776377,12.9395982 0.94,12.34 C0.578100492,11.6893544 0.395218033,10.9543739 0.41,10.21 C0.392919428,9.4853335 0.554326355,8.7675878 0.88,8.12 C1.16408424,7.56195581 1.60565447,7.099524 2.15,6.79 C2.68458488,6.49114277 3.28756113,6.33609174 3.9,6.34 C4.15664982,6.33943904 4.41223082,6.37306812 4.66,6.44 L4.27,5.99 C3.90208684,5.59153768 3.58623011,5.14799419 3.33,4.67 C3.11111201,4.21166697 3.00483154,3.70769187 3.02,3.2 C3.01772457,2.68729444 3.15235963,2.183276 3.41,1.74 C3.68067077,1.27123164 4.07967051,0.889579703 4.56,0.64 C5.12451558,0.347084673 5.75425407,0.202554528 6.39,0.22 C7.31970937,0.152818763 8.23672099,0.466913295 8.93,1.09 C9.51421105,1.66493073 9.86959744,2.43256534 9.93,3.25 C9.99826513,3.57867633 10.0184757,3.91551921 9.99,4.25 L8.68,4.25 C8.68640733,4.15343951 8.68640733,4.05656049 8.68,3.96 C8.68828281,3.87019057 8.68828281,3.77980943 8.68,3.69 C8.71240435,3.07413147 8.5003693,2.47037064 8.09,2.01 C7.64840773,1.58757415 7.04978586,1.36989348 6.44,1.41 C5.87062823,1.37632343 5.31396539,1.58734595 4.91,1.99 C4.54429598,2.35527729 4.34225006,2.85317617 4.35,3.37 C4.3361924,3.77138494 4.42208664,4.16993423 4.6,4.53 C4.818608,4.91815531 5.08025873,5.28044094 5.38,5.61 L12.83,14.15 L11.36,14.12 Z M6.36,12.32 C6.86385463,11.8106678 7.13521002,11.115998 7.11,10.4 C7.11682978,9.86865568 6.96729654,9.34702811 6.68,8.9 C6.12977611,8.01802027 5.16941719,7.47569994 4.13,7.46 C3.45280842,7.43266116 2.79433782,7.68591908 2.31,8.16 C1.81427389,8.70422065 1.55838852,9.42502451 1.6,10.16 C1.56034869,10.9480198 1.85863131,11.7155519 2.42,12.27 C2.95776317,12.7835048 3.67657224,13.0638403 4.42,13.05 C5.15333323,13.0962281 5.87218243,12.8311979 6.4,12.32 L6.36,12.32 Z" id="Shape"></path>
                <polygon id="Path" points="34.2 0.37 34.2 1.48 30.28 1.48 30.28 14.12 28.91 14.12 28.91 1.48 25 1.48 25 0.37"></polygon>
                <polygon id="Path" points="51.06 1.48 51.06 6.67 56.42 6.67 56.42 7.74 51.06 7.74 51.06 13 57 13 57 14.13 49.67 14.13 49.67 0.37 57 0.37 57 1.48"></polygon>
                <path d="M83.18,1.43 C84.2771025,2.25426908 85.0771569,3.41224256 85.46,4.73 L84,4.73 C83.6593135,3.77286263 83.0260731,2.94720108 82.19,2.37 C81.258215,1.76188442 80.1621068,1.45469486 79.05,1.49 C77.1800472,1.45688423 75.4618387,2.51514452 74.65,4.2 C74.1995947,5.13503259 73.9736023,6.16227073 73.99,7.2 C73.9698548,8.23810328 74.1960362,9.2662007 74.65,10.2 C75.4666483,11.8792197 77.183013,12.9324435 79.05,12.9 C80.1626602,12.9399053 81.2601328,12.6323334 82.19,12.02 C83.0279803,11.4448067 83.6617471,10.6184588 84,9.66 L85.44,9.66 C85.0571199,10.9804726 84.2572903,12.1416287 83.16,12.97 C81.9642871,13.8058991 80.5277949,14.2273637 79.07,14.17 C77.8846129,14.1909941 76.7170881,13.8791922 75.7,13.27 C74.7152181,12.6718415 73.9182772,11.8090664 73.4,10.78 C72.8363399,9.65797537 72.5548718,8.41539658 72.58,7.16 C72.5563816,5.89515002 72.8376403,4.64320559 73.4,3.51 C73.9151166,2.47874643 74.7127875,1.61518097 75.7,1.02 C76.7203688,0.419682119 77.8862763,0.111771848 79.07,0.13 C80.5437817,0.11258087 81.9843097,0.568222334 83.18,1.43 L83.18,1.43 Z" id="Path"></path>
                <polygon id="Path" points="111.81 0.37 111.81 14.12 110.44 14.12 110.44 7.61 103 7.61 103 14.12 101.62 14.12 101.62 0.37 103 0.37 103 6.47 110.45 6.47 110.45 0.37"></polygon>
                <polygon id="Path" points="138.74 14.12 137.36 14.12 129.83 2.63 129.83 14.12 128.45 14.12 128.45 0.39 129.83 0.39 137.36 11.89 137.36 0.39 138.74 0.39"></polygon>
                <path d="M165,1.11 C166.011331,1.70778985 166.838291,2.5728111 167.39,3.61 C168.554688,5.893392 168.554688,8.596608 167.39,10.88 C166.838508,11.9199532 166.011711,12.7882635 165,13.39 C162.870049,14.5872573 160.269951,14.5872573 158.14,13.39 C157.126,12.7911382 156.298508,11.9220987 155.75,10.88 C154.585312,8.596608 154.585312,5.893392 155.75,3.61 C156.301709,2.5728111 157.128669,1.70778985 158.14,1.11 C159.179822,0.502715627 160.365973,0.191480928 161.57,0.21 C162.773414,0.19649775 163.958249,0.507387278 165,1.11 L165,1.11 Z M158.87,2.19 C158.06534,2.66677268 157.410539,3.35968305 156.98,4.19 C156.053902,6.11087002 156.053902,8.34912998 156.98,10.27 C157.410539,11.1003169 158.06534,11.7932273 158.87,12.27 C160.549155,13.2027847 162.590845,13.2027847 164.27,12.27 C165.07466,11.7932273 165.729461,11.1003169 166.16,10.27 C167.086098,8.34912998 167.086098,6.11087002 166.16,4.19 C165.729461,3.35968305 165.07466,2.66677268 164.27,2.19 C162.590845,1.25721534 160.549155,1.25721534 158.87,2.19 L158.87,2.19 Z" id="Shape"></path>
                <polygon id="Path" points="185.81 13 190.81 13 190.81 14.09 184.43 14.09 184.43 0.37 185.81 0.37"></polygon>
                <path d="M216,1.11 C217.011331,1.70778985 217.838291,2.5728111 218.39,3.61 C219.554688,5.893392 219.554688,8.596608 218.39,10.88 C217.838508,11.9199532 217.011711,12.7882635 216,13.39 C213.870049,14.5872573 211.269951,14.5872573 209.14,13.39 C208.126,12.7911382 207.298508,11.9220987 206.75,10.88 C205.585312,8.596608 205.585312,5.893392 206.75,3.61 C207.301709,2.5728111 208.128669,1.70778985 209.14,1.11 C210.179822,0.502715627 211.365973,0.191480928 212.57,0.21 C213.773597,0.195009676 214.95882,0.506001045 216,1.11 Z M209.87,2.19 C209.06534,2.66677268 208.410539,3.35968305 207.98,4.19 C207.053902,6.11087002 207.053902,8.34912998 207.98,10.27 C208.410539,11.1003169 209.06534,11.7932273 209.87,12.27 C211.549155,13.2027847 213.590845,13.2027847 215.27,12.27 C216.07466,11.7932273 216.729461,11.1003169 217.16,10.27 C218.086098,8.34912998 218.086098,6.11087002 217.16,4.19 C216.729461,3.35968305 216.07466,2.66677268 215.27,2.19 C213.590845,1.25721534 211.549155,1.25721534 209.87,2.19 L209.87,2.19 Z" id="Shape"></path>
                <path d="M245.56,1.42 C246.638907,2.1978716 247.42165,3.31909825 247.78,4.6 L246.36,4.6 C246.013291,3.68682503 245.391249,2.90403156 244.58,2.36 C242.868892,1.27334613 240.699861,1.21192224 238.93,2.2 C238.124532,2.67261907 237.471941,3.36686565 237.05,4.2 C236.58395,5.13025444 236.350606,6.15971148 236.37,7.2 C236.343862,8.26772387 236.580827,9.32547892 237.06,10.28 C237.493269,11.1149147 238.155905,11.8087742 238.97,12.28 C240.621506,13.1797257 242.609006,13.2133488 244.29,12.37 C245.062344,11.9596277 245.706091,11.3435689 246.15,10.59 C246.639168,9.75139938 246.923541,8.80920029 246.98,7.84 L241.27,7.84 L241.27,6.84 L248.17,6.84 L248.17,8.05 C248.094442,9.16819851 247.751496,10.2519084 247.17,11.21 C246.614723,12.1320917 245.828953,12.893737 244.89,13.42 C243.889606,13.9713577 242.762084,14.2506523 241.62,14.23 C240.404344,14.2507836 239.205583,13.9433206 238.15,13.34 C237.141326,12.7528607 236.322262,11.8886787 235.79,10.85 C234.669488,8.55970532 234.669488,5.88029468 235.79,3.59 C236.320936,2.55364637 237.136069,1.68995299 238.14,1.1 C239.19209,0.497036123 240.387548,0.189534075 241.6,0.21 C243.015134,0.181622443 244.402409,0.60551198 245.56,1.42 Z" id="Path"></path>
                <polygon id="Path" points="273.52 0.37 269.09 8.75 269.09 14.11 267.71 14.11 267.71 8.75 263.26 0.37 264.84 0.37 268.39 7.29 271.94 0.37"></polygon>
            </g>
        </g>
    </g>
</svg>